<?xml version="1.0" encoding="UTF-8"?>
<svg id="Layer_2" data-name="Layer 2" xmlns="http://www.w3.org/2000/svg" viewBox="0 0 1734.48 28">
  <defs>
    <style>
      .cls-1 {
        fill: #debbcd;
      }
    </style>
  </defs>
  <g id="Layer_1-2" data-name="Layer 1">
    <path class="cls-1" d="M2.74,27C43.91-7.67,85.07-7.67,126.24,27H2.74Z"/>
    <path class="cls-1" d="M126.24,27c41.17-34.67,82.33-34.67,123.5,0H126.24Z"/>
    <path class="cls-1" d="M249.74,27c41.17-34.67,82.33-34.67,123.5,0h-123.5Z"/>
    <path class="cls-1" d="M373.24,27c41.17-34.67,82.33-34.67,123.5,0h-123.5Z"/>
    <path class="cls-1" d="M496.74,27c41.17-34.67,82.33-34.67,123.5,0h-123.5Z"/>
    <path class="cls-1" d="M620.24,27c41.17-34.67,82.33-34.67,123.5,0h-123.5Z"/>
    <path class="cls-1" d="M743.74,27c41.17-34.67,82.33-34.67,123.5,0h-123.5Z"/>
    <path class="cls-1" d="M867.24,27c41.17-34.67,82.33-34.67,123.5,0h-123.5Z"/>
    <path class="cls-1" d="M990.74,27c41.17-34.67,82.33-34.67,123.5,0h-123.5Z"/>
    <path class="cls-1" d="M1114.24,27c41.17-34.67,82.33-34.67,123.5,0h-123.5Z"/>
    <path class="cls-1" d="M1237.74,27c41.17-34.67,82.33-34.67,123.5,0h-123.5Z"/>
    <path class="cls-1" d="M1361.24,27c41.17-34.67,82.33-34.67,123.5,0h-123.5Z"/>
    <path class="cls-1" d="M1484.74,27c41.17-34.67,82.33-34.67,123.5,0h-123.5Z"/>
    <path class="cls-1" d="M1608.24,27c41.17-34.67,82.33-34.67,123.5,0h-123.5Z"/>
    <path class="cls-1" d="M2.74,27l-.64-.76-2.1,1.76H2.74v-1Zm1729,0v1h2.74l-2.1-1.76-.64,.76ZM3.38,27.76C23.84,10.54,44.21,2,64.49,2s40.65,8.54,61.11,25.76l1.29-1.53C106.18,8.8,85.37,0,64.49,0S22.8,8.8,2.1,26.24l1.29,1.53Zm123.5,0C147.34,10.54,167.71,2,187.99,2s40.65,8.54,61.11,25.76l1.29-1.53C229.68,8.8,208.87,0,187.99,0s-41.69,8.8-62.39,26.24l1.29,1.53Zm123.5,0c20.46-17.23,40.82-25.76,61.11-25.76s40.65,8.54,61.11,25.76l1.29-1.53C353.18,8.8,332.37,0,311.49,0s-41.69,8.8-62.39,26.24l1.29,1.53Zm123.5,0c20.46-17.23,40.82-25.76,61.11-25.76s40.65,8.54,61.11,25.76l1.29-1.53C476.68,8.8,455.87,0,434.99,0s-41.69,8.8-62.39,26.24l1.29,1.53Zm123.5,0c20.46-17.23,40.82-25.76,61.11-25.76s40.65,8.54,61.11,25.76l1.29-1.53c-20.71-17.44-41.51-26.24-62.39-26.24s-41.69,8.8-62.39,26.24l1.29,1.53Zm123.5,0c20.46-17.23,40.82-25.76,61.11-25.76s40.65,8.54,61.11,25.76l1.29-1.53c-20.71-17.44-41.51-26.24-62.39-26.24s-41.69,8.8-62.39,26.24l1.29,1.53Zm123.5,0c20.46-17.23,40.82-25.76,61.11-25.76s40.65,8.54,61.11,25.76l1.29-1.53c-20.71-17.44-41.51-26.24-62.39-26.24s-41.69,8.8-62.39,26.24l1.29,1.53Zm123.5,0c20.46-17.23,40.82-25.76,61.11-25.76s40.65,8.54,61.11,25.76l1.29-1.53c-20.71-17.44-41.51-26.24-62.39-26.24s-41.69,8.8-62.39,26.24l1.29,1.53Zm123.5,0c20.46-17.23,40.83-25.76,61.11-25.76s40.65,8.54,61.11,25.76l1.28-1.53c-20.7-17.44-41.51-26.24-62.39-26.24s-41.69,8.8-62.39,26.24l1.29,1.53Zm123.5,0c20.46-17.23,40.83-25.76,61.11-25.76s40.65,8.54,61.11,25.76l1.28-1.53c-20.7-17.44-41.51-26.24-62.39-26.24s-41.69,8.8-62.39,26.24l1.28,1.53Zm123.5,0c20.46-17.23,40.83-25.76,61.11-25.76s40.65,8.54,61.11,25.76l1.28-1.53c-20.7-17.44-41.51-26.24-62.39-26.24s-41.69,8.8-62.39,26.24l1.28,1.53Zm123.5,0c20.46-17.23,40.83-25.76,61.11-25.76s40.65,8.54,61.11,25.76l1.28-1.53c-20.7-17.44-41.51-26.24-62.39-26.24s-41.69,8.8-62.39,26.24l1.28,1.53Zm123.5,0c20.46-17.23,40.83-25.76,61.11-25.76s40.65,8.54,61.11,25.76l1.28-1.53c-20.7-17.44-41.51-26.24-62.39-26.24s-41.69,8.8-62.39,26.24l1.28,1.53Zm123.5,0c20.46-17.23,40.83-25.76,61.11-25.76s40.65,8.54,61.11,25.76l1.28-1.53c-20.7-17.44-41.51-26.24-62.39-26.24s-41.69,8.8-62.39,26.24l1.28,1.53Zm122.86-1.76H2.74v2H1731.74v-2Zm-1605.5,0H2.74v2H126.24v-2Zm123.5,0H126.24v2h123.5v-2Zm123.5,0h-123.5v2h123.5v-2Zm123.5,0h-123.5v2h123.5v-2Zm123.5,0h-123.5v2h123.5v-2Zm123.5,0h-123.5v2h123.5v-2Zm123.5,0h-123.5v2h123.5v-2Zm123.5,0h-123.5v2h123.5v-2Zm123.5,0h-123.5v2h123.5v-2Zm123.5,0h-123.5v2h123.5v-2Zm123.5,0h-123.5v2h123.5v-2Zm123.5,0h-123.5v2h123.5v-2Zm123.5,0h-123.5v2h123.5v-2Zm123.5,0h-123.5v2h123.5v-2Z"/>
  </g>
</svg>